<svg xmlns="http://www.w3.org/2000/svg" viewBox="0 0 1536 1024" role="img" aria-label="Logo">
  <path d="M 831.00 544.00 C 830.24 541.91 829.15 539.62 828.00 537.99 C 826.84 536.37 824.46 533.78 824.06 534.24 C 823.65 534.71 825.08 538.60 825.57 540.79 C 826.05 542.97 826.82 545.13 826.97 547.34 C 827.13 549.55 826.64 551.80 826.48 554.04 C 826.31 556.27 826.15 558.50 825.98 560.73 C 825.82 562.96 825.66 565.20 825.49 567.43 C 825.32 569.66 825.40 571.94 824.96 574.12 C 824.52 576.30 823.54 578.37 822.84 580.49 C 822.13 582.61 821.56 584.80 820.71 586.86 C 819.87 588.92 818.81 590.89 817.75 592.85 C 816.69 594.82 815.50 596.72 814.37 598.65 C 813.24 600.59 812.11 602.52 810.98 604.46 C 809.86 606.39 808.85 608.41 807.60 610.26 C 806.35 612.10 804.97 613.84 803.50 615.50 C 802.02 617.17 800.33 618.67 798.75 620.25 C 797.17 621.83 795.58 623.42 794.00 625.00 C 792.42 626.58 790.84 628.16 789.25 629.75 C 787.67 631.33 786.09 632.91 784.50 634.50 C 782.92 636.08 781.45 637.81 779.76 639.24 C 778.06 640.68 776.20 641.90 774.32 643.09 C 772.44 644.28 770.43 645.30 768.48 646.40 C 766.53 647.51 764.59 648.61 762.64 649.72 C 760.69 650.82 758.74 651.93 756.80 653.03 C 754.85 654.14 752.90 655.24 750.96 656.35 C 749.01 657.45 747.09 658.62 745.12 659.66 C 743.14 660.70 741.18 661.77 739.11 662.59 C 737.04 663.41 734.83 663.91 732.69 664.58 C 730.56 665.24 728.42 665.90 726.28 666.57 C 724.14 667.23 722.01 667.89 719.87 668.56 C 717.73 669.22 715.62 670.02 713.45 670.55 C 711.29 671.07 709.06 671.37 706.86 671.71 C 704.65 672.06 702.42 672.33 700.20 672.64 C 697.99 672.95 695.77 673.25 693.55 673.56 C 691.34 673.87 689.12 674.18 686.90 674.49 C 684.68 674.79 682.47 675.18 680.25 675.41 C 678.03 675.64 675.81 675.85 673.58 675.87 C 671.35 675.88 669.11 675.62 666.87 675.49 C 664.64 675.37 662.40 675.24 660.17 675.12 C 657.93 675.00 655.70 674.87 653.46 674.75 C 651.23 674.62 648.99 674.50 646.76 674.38 C 644.52 674.25 641.09 674.91 640.05 674.00 C 639.02 673.09 639.36 669.82 640.56 668.91 C 641.76 667.99 645.03 668.65 647.26 668.51 C 649.50 668.38 651.73 668.25 653.97 668.12 C 656.20 667.99 658.44 667.86 660.67 667.73 C 662.91 667.59 665.14 667.48 667.37 667.33 C 669.61 667.18 671.85 667.09 674.06 666.81 C 676.28 666.54 678.47 666.05 680.68 665.66 C 682.89 665.28 685.09 664.90 687.30 664.51 C 689.50 664.13 691.73 663.84 693.91 663.36 C 696.09 662.88 698.24 662.25 700.39 661.63 C 702.53 661.01 704.66 660.29 706.80 659.63 C 708.93 658.96 711.07 658.29 713.21 657.62 C 715.34 656.96 717.48 656.29 719.62 655.62 C 721.75 654.95 723.93 654.39 726.03 653.62 C 728.12 652.85 730.16 651.92 732.20 651.00 C 734.23 650.09 736.24 649.08 738.26 648.11 C 740.28 647.15 742.32 646.23 744.32 645.23 C 746.32 644.23 748.35 643.28 750.26 642.12 C 752.17 640.97 753.93 639.57 755.77 638.29 C 757.61 637.01 759.45 635.73 761.28 634.45 C 763.12 633.18 764.97 631.91 766.80 630.62 C 768.63 629.33 770.56 628.17 772.27 626.73 C 773.97 625.29 775.43 623.57 777.02 621.98 C 778.60 620.40 780.18 618.82 781.76 617.24 C 783.35 615.65 784.93 614.07 786.51 612.49 C 788.10 610.90 789.84 609.45 791.26 607.74 C 792.68 606.02 793.80 604.07 795.02 602.20 C 796.24 600.33 797.41 598.41 798.60 596.52 C 799.79 594.62 800.98 592.73 802.18 590.84 C 803.37 588.94 804.59 587.06 805.76 585.15 C 806.92 583.25 808.29 581.43 809.18 579.40 C 810.06 577.37 810.44 575.11 811.07 572.96 C 811.70 570.81 812.82 568.47 812.97 566.52 C 813.11 564.56 812.39 561.01 811.95 561.22 C 811.50 561.42 811.09 565.65 810.32 567.73 C 809.54 569.81 808.36 571.72 807.29 573.68 C 806.23 575.64 805.05 577.55 803.93 579.49 C 802.80 581.43 801.80 583.45 800.56 585.30 C 799.33 587.16 797.96 588.91 796.52 590.61 C 795.07 592.30 793.43 593.85 791.89 595.47 C 790.34 597.09 788.80 598.71 787.26 600.33 C 785.71 601.95 784.21 603.62 782.62 605.19 C 781.04 606.77 779.52 608.42 777.76 609.77 C 776.00 611.12 773.96 612.13 772.05 613.31 C 770.15 614.49 768.25 615.67 766.35 616.85 C 764.45 618.03 762.54 619.21 760.64 620.39 C 758.74 621.58 756.85 622.79 754.94 623.94 C 753.02 625.08 751.17 626.37 749.14 627.29 C 747.11 628.20 744.89 628.70 742.77 629.41 C 740.65 630.12 738.52 630.83 736.40 631.53 C 734.28 632.24 732.15 632.95 730.03 633.66 C 727.91 634.36 725.80 635.14 723.66 635.78 C 721.52 636.42 719.37 637.02 717.19 637.51 C 715.01 638.00 712.78 638.31 710.58 638.71 C 708.38 639.11 706.18 639.53 703.97 639.91 C 701.77 640.30 699.58 640.80 697.36 641.02 C 695.13 641.23 692.88 641.14 690.64 641.20 C 688.40 641.26 686.17 641.32 683.93 641.38 C 681.69 641.44 679.45 641.50 677.22 641.56 C 674.98 641.62 672.74 641.68 670.50 641.74 C 668.27 641.80 666.02 641.97 663.79 641.92 C 661.56 641.88 659.33 641.70 657.11 641.48 C 654.89 641.26 652.67 640.89 650.45 640.60 C 648.23 640.31 646.02 640.01 643.80 639.72 C 641.58 639.42 639.36 639.13 637.14 638.83 C 634.92 638.54 632.70 638.24 630.48 637.95 C 628.26 637.65 626.04 637.36 623.83 637.07 C 621.61 636.77 619.39 636.48 617.17 636.18 C 614.95 635.89 612.73 635.59 610.51 635.30 C 608.29 635.00 606.07 634.71 603.85 634.41 C 601.64 634.12 599.42 633.83 597.20 633.53 C 594.98 633.24 592.76 632.94 590.54 632.65 C 588.32 632.35 586.10 632.06 583.88 631.76 C 581.66 631.47 579.45 631.17 577.23 630.88 C 575.01 630.59 572.79 630.29 570.57 630.00 C 568.35 629.70 566.13 629.41 563.91 629.11 C 561.69 628.82 559.47 628.52 557.26 628.23 C 555.04 627.93 552.82 627.53 550.60 627.34 C 548.37 627.16 546.14 627.12 543.91 627.11 C 541.67 627.10 539.43 627.23 537.19 627.29 C 534.96 627.35 532.72 627.41 530.48 627.47 C 528.24 627.53 526.01 627.59 523.77 627.65 C 521.53 627.72 519.29 627.75 517.06 627.84 C 514.82 627.92 512.56 627.83 510.36 628.16 C 508.16 628.48 506.02 629.25 503.85 629.79 C 501.68 630.33 499.50 630.87 497.33 631.42 C 495.16 631.97 492.90 632.28 490.84 633.09 C 488.77 633.90 486.91 635.23 484.94 636.31 C 482.97 637.38 481.01 638.45 479.04 639.52 C 477.08 640.59 475.05 641.58 473.15 642.74 C 471.25 643.89 469.32 645.02 467.64 646.45 C 465.96 647.89 464.58 649.72 463.05 651.35 C 461.52 652.98 459.97 654.61 458.45 656.25 C 456.93 657.89 455.09 659.33 453.92 661.19 C 452.75 663.05 452.26 665.35 451.43 667.42 C 450.60 669.50 449.77 671.58 448.94 673.66 C 448.11 675.74 446.93 677.75 446.44 679.89 C 445.95 682.04 446.01 684.31 446.00 686.52 C 445.99 688.74 445.98 691.00 446.36 693.19 C 446.74 695.37 447.49 697.54 448.29 699.62 C 449.08 701.70 450.09 703.68 451.13 705.65 C 452.17 707.63 453.26 709.62 454.52 711.45 C 455.77 713.29 457.18 715.00 458.66 716.66 C 460.15 718.32 461.75 719.94 463.41 721.41 C 465.08 722.88 466.82 724.26 468.67 725.48 C 470.53 726.71 472.59 727.66 474.54 728.75 C 476.50 729.83 478.46 730.92 480.41 732.01 C 482.37 733.09 484.33 734.18 486.28 735.27 C 488.24 736.36 490.11 737.65 492.15 738.53 C 494.20 739.41 496.39 739.92 498.53 740.56 C 500.67 741.20 502.84 741.77 505.00 742.37 C 507.15 742.98 509.31 743.59 511.46 744.19 C 513.62 744.80 515.77 745.40 517.93 746.01 C 520.08 746.62 522.21 747.36 524.39 747.83 C 526.57 748.30 528.81 748.51 531.03 748.83 C 533.24 749.15 535.46 749.44 537.68 749.75 C 539.90 750.05 542.11 750.36 544.33 750.67 C 546.55 750.97 548.76 751.36 550.98 751.58 C 553.21 751.81 555.44 751.93 557.67 752.00 C 559.90 752.07 562.15 752.00 564.38 752.00 C 566.62 752.00 568.86 752.00 571.10 752.00 C 573.34 752.00 575.58 752.00 577.82 752.00 C 580.05 752.00 582.29 752.00 584.53 752.00 C 586.77 752.00 589.01 752.00 591.25 752.00 C 593.48 752.00 595.72 752.00 597.96 752.00 C 600.20 752.00 602.45 752.12 604.68 752.00 C 606.91 751.88 609.12 751.56 611.35 751.30 C 613.57 751.03 615.78 750.71 618.00 750.42 C 620.22 750.13 622.44 749.84 624.66 749.54 C 626.88 749.25 629.10 748.96 631.32 748.67 C 633.54 748.38 635.76 748.09 637.98 747.79 C 640.20 747.49 642.43 747.27 644.62 746.85 C 646.82 746.44 648.98 745.83 651.16 745.31 C 653.34 744.80 655.52 744.29 657.70 743.78 C 659.88 743.26 662.06 742.75 664.24 742.24 C 666.41 741.73 668.59 741.21 670.77 740.70 C 672.95 740.19 675.16 739.79 677.31 739.16 C 679.45 738.54 681.54 737.71 683.65 736.96 C 685.76 736.21 687.86 735.44 689.96 734.68 C 692.07 733.92 694.18 733.16 696.28 732.40 C 698.39 731.64 700.49 730.88 702.60 730.12 C 704.70 729.36 706.82 728.63 708.91 727.84 C 711.01 727.05 713.13 726.32 715.15 725.38 C 717.18 724.44 719.10 723.27 721.07 722.21 C 723.04 721.15 725.01 720.09 726.99 719.03 C 728.96 717.97 730.93 716.92 732.90 715.86 C 734.88 714.80 736.85 713.74 738.82 712.68 C 740.79 711.62 742.77 710.56 744.74 709.51 C 746.71 708.45 748.71 707.43 750.66 706.33 C 752.60 705.23 754.57 704.17 756.42 702.92 C 758.27 701.67 759.98 700.21 761.76 698.85 C 763.54 697.49 765.32 696.14 767.10 694.78 C 768.88 693.42 770.70 692.10 772.44 690.71 C 774.19 689.31 775.94 687.92 777.59 686.41 C 779.24 684.90 780.75 683.25 782.34 681.66 C 783.92 680.08 785.50 678.50 787.08 676.92 C 788.67 675.33 790.25 673.75 791.83 672.17 C 793.42 670.58 795.01 669.01 796.58 667.42 C 798.15 665.83 799.84 664.33 801.27 662.62 C 802.70 660.91 803.87 658.98 805.17 657.16 C 806.48 655.33 807.78 653.51 809.08 651.69 C 810.38 649.87 811.71 648.07 812.98 646.23 C 814.25 644.38 815.56 642.57 816.68 640.64 C 817.80 638.71 818.68 636.63 819.68 634.63 C 820.68 632.63 821.69 630.63 822.69 628.63 C 823.69 626.62 824.81 624.67 825.69 622.62 C 826.57 620.57 827.31 618.47 827.98 616.34 C 828.64 614.21 829.13 612.02 829.71 609.85 C 830.28 607.69 830.86 605.53 831.44 603.36 C 832.01 601.20 832.59 599.04 833.17 596.88 C 833.74 594.71 834.55 592.58 834.90 590.39 C 835.24 588.19 835.15 585.92 835.25 583.69 C 835.36 581.46 835.43 579.22 835.52 576.98 C 835.61 574.74 835.76 572.50 835.79 570.27 C 835.81 568.04 835.95 565.80 835.67 563.60 C 835.39 561.40 834.63 559.24 834.11 557.07 C 833.59 554.89 833.07 552.71 832.56 550.53 C 832.04 548.36 831.76 546.09 831.00 544.00 Z" fill="currentColor" fill-rule="evenodd"/>
  <path d="M 747.00 479.00 C 745.63 480.75 744.34 482.88 743.55 484.76 C 742.75 486.63 741.67 489.87 742.25 490.25 C 742.82 490.62 745.41 488.34 747.00 487.00 C 748.58 485.67 750.16 483.84 751.74 482.26 C 753.33 480.67 754.77 478.91 756.49 477.51 C 758.21 476.11 760.14 475.00 762.06 473.87 C 763.98 472.75 766.02 471.80 768.01 470.76 C 769.99 469.72 771.96 468.64 773.95 467.64 C 775.95 466.64 777.89 465.51 779.99 464.75 C 782.08 464.00 784.33 463.67 786.50 463.13 C 788.67 462.58 790.84 462.04 793.01 461.50 C 795.18 460.95 797.34 460.28 799.53 459.87 C 801.71 459.45 803.91 459.14 806.13 459.00 C 808.35 458.86 810.61 459.00 812.85 459.00 C 815.09 459.00 817.32 459.00 819.56 459.00 C 821.80 459.00 824.04 459.00 826.28 459.00 C 828.51 459.00 830.79 458.73 832.99 459.00 C 835.19 459.27 837.33 460.08 839.50 460.63 C 841.67 461.17 843.85 461.71 846.02 462.25 C 848.19 462.80 850.36 463.34 852.53 463.88 C 854.70 464.43 856.87 464.97 859.04 465.51 C 861.22 466.05 863.43 466.48 865.56 467.14 C 867.68 467.80 869.77 468.57 871.80 469.48 C 873.83 470.40 875.75 471.58 877.73 472.62 C 879.71 473.67 881.69 474.72 883.67 475.76 C 885.64 476.81 887.62 477.86 889.60 478.91 C 891.58 479.95 893.56 481.00 895.53 482.05 C 897.51 483.09 899.58 484.00 901.47 485.19 C 903.35 486.38 905.07 487.80 906.83 489.19 C 908.58 490.57 910.26 492.05 911.98 493.49 C 913.70 494.92 915.42 496.35 917.14 497.78 C 918.86 499.22 920.59 500.64 922.30 502.08 C 924.01 503.53 925.81 504.88 927.39 506.45 C 928.97 508.02 930.31 509.84 931.78 511.53 C 933.24 513.22 934.70 514.92 936.17 516.61 C 937.63 518.31 939.09 520.00 940.55 521.69 C 942.02 523.39 943.60 524.99 944.94 526.78 C 946.28 528.56 947.41 530.49 948.58 532.40 C 949.75 534.30 950.84 536.26 951.97 538.19 C 953.10 540.12 954.24 542.05 955.37 543.98 C 956.50 545.91 957.63 547.84 958.76 549.77 C 959.89 551.70 961.62 553.66 962.16 555.56 C 962.69 557.47 962.93 560.49 961.97 561.21 C 961.01 561.92 957.99 560.99 956.39 559.88 C 954.78 558.77 953.68 556.31 952.32 554.53 C 950.97 552.75 949.62 550.97 948.26 549.19 C 946.91 547.41 945.55 545.62 944.20 543.84 C 942.85 542.06 941.57 540.21 940.14 538.50 C 938.70 536.79 937.13 535.19 935.58 533.58 C 934.03 531.97 932.42 530.42 930.83 528.83 C 929.25 527.25 927.67 525.67 926.09 524.09 C 924.50 522.50 922.95 520.89 921.34 519.34 C 919.73 517.79 918.12 516.23 916.41 514.80 C 914.69 513.38 912.83 512.12 911.03 510.78 C 909.24 509.43 907.45 508.09 905.66 506.75 C 903.87 505.40 902.08 504.06 900.29 502.72 C 898.50 501.38 896.79 499.92 894.92 498.69 C 893.06 497.46 891.06 496.44 889.11 495.35 C 887.16 494.26 885.17 493.22 883.21 492.15 C 881.24 491.09 879.27 490.02 877.30 488.96 C 875.33 487.89 873.42 486.70 871.40 485.76 C 869.37 484.82 867.26 484.09 865.16 483.32 C 863.06 482.54 860.93 481.85 858.82 481.11 C 856.71 480.38 854.60 479.62 852.48 478.91 C 850.36 478.19 848.26 477.38 846.10 476.84 C 843.94 476.29 841.70 476.04 839.49 475.64 C 837.29 475.24 835.09 474.83 832.89 474.43 C 830.69 474.03 828.50 473.42 826.28 473.23 C 824.07 473.05 821.83 473.25 819.60 473.34 C 817.37 473.42 815.13 473.62 812.90 473.76 C 810.67 473.90 808.43 474.04 806.20 474.18 C 803.97 474.31 801.73 474.45 799.50 474.59 C 797.27 474.74 794.99 474.65 792.81 475.06 C 790.62 475.47 788.53 476.40 786.40 477.06 C 784.26 477.73 781.98 478.15 779.99 479.07 C 778.00 479.98 774.88 481.90 774.47 482.53 C 774.05 483.17 775.91 483.09 777.50 482.87 C 779.09 482.66 781.84 481.73 784.01 481.25 C 786.19 480.77 788.36 480.21 790.58 480.00 C 792.79 479.79 795.05 480.00 797.29 480.00 C 799.53 480.00 801.77 480.00 804.00 480.00 C 806.24 480.00 808.49 479.93 810.72 480.00 C 812.95 480.07 815.18 480.17 817.39 480.45 C 819.60 480.73 821.79 481.27 823.99 481.69 C 826.19 482.10 828.44 482.34 830.59 482.92 C 832.74 483.51 834.80 484.42 836.90 485.19 C 839.00 485.95 841.10 486.74 843.20 487.52 C 845.30 488.30 847.40 489.07 849.49 489.85 C 851.59 490.63 853.76 491.27 855.79 492.18 C 857.82 493.10 859.75 494.22 861.67 495.35 C 863.59 496.48 865.44 497.76 867.33 498.97 C 869.21 500.18 871.10 501.38 872.98 502.59 C 874.87 503.79 876.78 504.96 878.64 506.21 C 880.49 507.45 882.39 508.64 884.11 510.06 C 885.82 511.48 887.33 513.16 888.95 514.71 C 890.56 516.26 892.18 517.81 893.79 519.36 C 895.41 520.91 897.02 522.46 898.64 524.01 C 900.25 525.56 901.88 527.10 903.48 528.66 C 905.08 530.22 906.81 531.67 908.26 533.36 C 909.71 535.06 910.86 537.01 912.16 538.83 C 913.46 540.65 914.76 542.47 916.06 544.29 C 917.37 546.11 918.67 547.93 919.97 549.75 C 921.27 551.58 922.57 553.40 923.87 555.22 C 925.17 557.04 926.60 558.78 927.77 560.68 C 928.94 562.58 929.87 564.63 930.90 566.62 C 931.94 568.60 932.96 570.59 933.99 572.58 C 935.02 574.57 936.05 576.55 937.07 578.54 C 938.10 580.53 939.14 582.51 940.16 584.51 C 941.18 586.50 942.27 588.46 943.20 590.49 C 944.12 592.53 944.87 594.64 945.71 596.72 C 946.54 598.79 947.38 600.87 948.22 602.95 C 949.05 605.02 949.89 607.10 950.73 609.17 C 951.56 611.25 952.40 613.32 953.24 615.40 C 954.07 617.48 954.91 619.55 955.75 621.63 C 956.58 623.70 957.42 625.78 958.25 627.85 C 959.09 629.93 959.93 632.01 960.76 634.08 C 961.60 636.16 962.44 638.23 963.27 640.31 C 964.11 642.39 964.95 644.46 965.78 646.54 C 966.62 648.61 967.43 650.70 968.29 652.76 C 969.16 654.83 970.02 656.89 970.96 658.92 C 971.91 660.95 972.96 662.92 973.96 664.93 C 974.96 666.93 975.96 668.93 976.97 670.93 C 977.97 672.93 978.97 674.93 979.97 676.94 C 980.97 678.94 981.84 681.02 982.97 682.94 C 984.10 684.87 985.49 686.64 986.75 688.49 C 988.00 690.34 989.27 692.19 990.53 694.04 C 991.79 695.89 993.04 697.74 994.31 699.59 C 995.58 701.43 996.67 703.42 998.12 705.11 C 999.57 706.80 1001.37 708.19 1003.00 709.72 C 1004.63 711.26 1006.25 712.80 1007.88 714.33 C 1009.51 715.87 1011.06 717.52 1012.76 718.94 C 1014.47 720.36 1016.17 721.77 1018.10 722.84 C 1020.03 723.90 1022.25 724.50 1024.33 725.33 C 1026.41 726.16 1028.49 727.00 1030.57 727.83 C 1032.64 728.66 1034.70 729.65 1036.80 730.32 C 1038.90 730.99 1041.01 731.67 1043.19 731.84 C 1045.37 732.01 1047.65 731.51 1049.88 731.34 C 1052.11 731.18 1054.34 731.01 1056.58 730.85 C 1058.81 730.68 1061.07 730.64 1063.27 730.35 C 1065.47 730.06 1067.68 729.82 1069.76 729.12 C 1071.85 728.41 1073.97 727.40 1075.77 726.11 C 1077.57 724.83 1079.00 723.02 1080.57 721.43 C 1082.13 719.85 1083.96 718.42 1085.18 716.60 C 1086.40 714.77 1087.00 712.50 1087.91 710.46 C 1088.82 708.41 1089.78 706.38 1090.63 704.32 C 1091.49 702.27 1092.59 700.27 1093.04 698.11 C 1093.48 695.96 1093.22 693.64 1093.32 691.41 C 1093.41 689.17 1093.50 686.93 1093.60 684.70 C 1093.69 682.46 1093.96 680.21 1093.88 677.99 C 1093.79 675.77 1093.49 673.58 1093.07 671.39 C 1092.66 669.21 1091.96 667.06 1091.40 664.89 C 1090.84 662.72 1090.29 660.56 1089.73 658.39 C 1089.17 656.22 1088.61 654.05 1088.06 651.89 C 1087.50 649.72 1086.97 647.54 1086.38 645.38 C 1085.80 643.23 1085.30 641.04 1084.53 638.95 C 1083.76 636.85 1082.69 634.87 1081.77 632.82 C 1080.85 630.78 1079.93 628.74 1079.02 626.70 C 1078.10 624.66 1077.18 622.62 1076.26 620.58 C 1075.34 618.54 1074.42 616.50 1073.51 614.46 C 1072.59 612.42 1071.67 610.38 1070.75 608.33 C 1069.83 606.29 1069.00 604.20 1068.00 602.21 C 1066.99 600.22 1065.85 598.30 1064.70 596.38 C 1063.56 594.46 1062.31 592.60 1061.11 590.71 C 1059.91 588.82 1058.71 586.93 1057.51 585.04 C 1056.31 583.15 1055.11 581.26 1053.92 579.37 C 1052.72 577.48 1051.52 575.59 1050.32 573.70 C 1049.12 571.81 1047.92 569.92 1046.72 568.03 C 1045.53 566.14 1044.37 564.22 1043.13 562.36 C 1041.89 560.50 1040.63 558.65 1039.29 556.86 C 1037.95 555.07 1036.49 553.37 1035.10 551.62 C 1033.70 549.87 1032.30 548.12 1030.90 546.38 C 1029.50 544.63 1028.15 542.84 1026.71 541.13 C 1025.26 539.43 1023.76 537.77 1022.24 536.13 C 1020.71 534.49 1019.13 532.91 1017.58 531.30 C 1016.02 529.69 1014.47 528.08 1012.92 526.47 C 1011.36 524.86 1009.81 523.25 1008.25 521.63 C 1006.70 520.02 1005.15 518.41 1003.59 516.80 C 1002.04 515.19 1000.56 513.50 998.93 511.97 C 997.31 510.43 995.56 509.03 993.85 507.59 C 992.14 506.15 990.39 504.75 988.66 503.33 C 986.93 501.91 985.20 500.49 983.48 499.07 C 981.75 497.65 980.02 496.23 978.29 494.81 C 976.56 493.39 974.86 491.92 973.10 490.55 C 971.34 489.17 969.56 487.81 967.73 486.54 C 965.89 485.27 963.96 484.12 962.08 482.91 C 960.20 481.70 958.31 480.49 956.43 479.28 C 954.55 478.07 952.67 476.86 950.78 475.65 C 948.90 474.44 947.05 473.16 945.14 472.02 C 943.22 470.87 941.28 469.76 939.29 468.75 C 937.29 467.74 935.22 466.88 933.18 465.95 C 931.15 465.02 929.12 464.08 927.08 463.15 C 925.05 462.21 923.02 461.28 920.98 460.34 C 918.95 459.41 916.92 458.47 914.88 457.54 C 912.85 456.61 910.84 455.61 908.78 454.74 C 906.73 453.86 904.66 453.01 902.55 452.29 C 900.44 451.56 898.25 451.03 896.10 450.41 C 893.96 449.78 891.81 449.15 889.66 448.53 C 887.51 447.90 885.38 447.17 883.21 446.65 C 881.04 446.12 878.84 445.75 876.64 445.38 C 874.43 445.01 872.20 444.74 869.99 444.43 C 867.77 444.11 865.56 443.79 863.34 443.48 C 861.13 443.16 858.91 442.84 856.70 442.53 C 854.48 442.21 852.27 441.82 850.05 441.58 C 847.83 441.34 845.61 441.13 843.38 441.09 C 841.15 441.05 838.91 441.25 836.67 441.33 C 834.43 441.41 832.20 441.49 829.96 441.57 C 827.72 441.65 825.48 441.69 823.25 441.81 C 821.02 441.94 818.78 441.99 816.58 442.33 C 814.37 442.67 812.21 443.34 810.03 443.84 C 807.85 444.34 805.67 444.84 803.49 445.35 C 801.31 445.85 799.11 446.29 796.95 446.86 C 794.79 447.42 792.61 447.92 790.54 448.73 C 788.47 449.54 786.53 450.73 784.53 451.73 C 782.53 452.73 780.53 453.74 778.53 454.74 C 776.53 455.74 774.52 456.74 772.52 457.74 C 770.52 458.74 768.40 459.57 766.52 460.74 C 764.64 461.91 762.91 463.30 761.24 464.76 C 759.57 466.22 758.08 467.92 756.50 469.50 C 754.91 471.09 753.33 472.67 751.75 474.25 C 750.17 475.83 748.37 477.25 747.00 479.00 Z" fill="currentColor" fill-rule="evenodd"/>
  <path d="M 812.00 206.00 C 809.98 205.56 807.76 206.00 805.65 206.00 C 803.53 206.00 801.41 206.00 799.29 206.00 C 797.17 206.00 795.02 205.85 792.94 206.00 C 790.85 206.15 788.77 206.36 786.76 206.91 C 784.75 207.46 782.84 208.51 780.88 209.31 C 778.91 210.11 776.95 210.91 774.99 211.71 C 773.03 212.51 771.07 213.31 769.11 214.10 C 767.14 214.90 765.10 215.55 763.22 216.50 C 761.34 217.46 759.61 218.69 757.84 219.84 C 756.07 221.00 754.35 222.24 752.60 223.43 C 750.85 224.63 749.08 225.80 747.36 227.02 C 745.63 228.24 743.84 229.39 742.22 230.75 C 740.60 232.10 739.17 233.68 737.64 235.15 C 736.12 236.62 734.59 238.09 733.06 239.56 C 731.54 241.02 730.01 242.49 728.48 243.96 C 726.96 245.43 725.43 246.90 723.90 248.36 C 722.37 249.83 720.79 251.25 719.32 252.77 C 717.85 254.29 716.43 255.85 715.06 257.46 C 713.70 259.08 712.45 260.80 711.14 262.46 C 709.83 264.13 708.52 265.79 707.21 267.46 C 705.90 269.12 704.59 270.79 703.29 272.45 C 701.98 274.12 700.67 275.79 699.36 277.45 C 698.05 279.12 696.65 280.72 695.43 282.45 C 694.21 284.18 693.16 286.02 692.04 287.81 C 690.92 289.61 689.82 291.42 688.71 293.23 C 687.60 295.03 686.49 296.83 685.38 298.64 C 684.27 300.44 683.16 302.25 682.05 304.05 C 680.94 305.85 679.83 307.66 678.72 309.46 C 677.61 311.27 676.50 313.07 675.39 314.87 C 674.28 316.68 673.08 318.44 672.06 320.28 C 671.03 322.13 670.12 324.04 669.21 325.95 C 668.30 327.86 667.46 329.81 666.59 331.74 C 665.72 333.67 664.85 335.60 663.97 337.53 C 663.10 339.46 662.23 341.39 661.35 343.32 C 660.48 345.25 659.61 347.18 658.73 349.11 C 657.86 351.04 656.99 352.97 656.12 354.90 C 655.24 356.83 654.32 358.74 653.50 360.69 C 652.68 362.64 651.89 364.61 651.19 366.60 C 650.49 368.60 649.94 370.65 649.31 372.67 C 648.68 374.69 648.05 376.72 647.43 378.74 C 646.80 380.76 646.17 382.79 645.54 384.81 C 644.91 386.83 644.22 388.84 643.66 390.88 C 643.10 392.92 642.63 394.98 642.17 397.05 C 641.70 399.11 641.31 401.20 640.89 403.27 C 640.46 405.35 640.03 407.42 639.60 409.50 C 639.18 411.57 638.75 413.64 638.32 415.72 C 637.90 417.79 637.43 419.86 637.04 421.94 C 636.65 424.02 636.18 426.09 635.97 428.19 C 635.77 430.29 635.87 432.43 635.82 434.54 C 635.76 436.66 635.71 438.78 635.66 440.90 C 635.61 443.01 635.56 445.13 635.51 447.25 C 635.45 449.37 635.40 451.48 635.35 453.60 C 635.30 455.72 635.25 457.84 635.20 459.95 C 635.14 462.07 634.97 464.20 635.04 466.31 C 635.11 468.42 635.37 470.52 635.60 472.62 C 635.83 474.72 636.15 476.82 636.42 478.92 C 636.70 481.02 636.96 483.13 637.25 485.22 C 637.53 487.32 637.70 489.44 638.15 491.51 C 638.59 493.57 639.31 495.58 639.89 497.62 C 640.47 499.66 641.05 501.69 641.64 503.73 C 642.22 505.77 642.69 507.84 643.38 509.84 C 644.07 511.83 644.92 513.77 645.78 515.70 C 646.64 517.63 647.62 519.52 648.54 521.43 C 649.46 523.33 650.38 525.24 651.29 527.15 C 652.21 529.06 653.13 530.97 654.05 532.88 C 654.97 534.78 655.71 536.81 656.81 538.60 C 657.91 540.39 659.37 541.97 660.67 543.64 C 661.97 545.30 663.30 546.96 664.61 548.62 C 665.93 550.28 667.24 551.94 668.56 553.60 C 669.87 555.26 671.17 556.94 672.50 558.58 C 673.84 560.22 675.05 561.99 676.58 563.43 C 678.10 564.88 679.96 565.97 681.66 567.24 C 683.35 568.52 685.05 569.79 686.74 571.06 C 688.44 572.33 690.11 573.65 691.83 574.87 C 693.55 576.09 695.20 577.44 697.07 578.39 C 698.94 579.33 701.06 579.82 703.05 580.54 C 705.04 581.26 707.04 581.97 709.03 582.69 C 711.02 583.41 713.01 584.12 715.01 584.84 C 717.00 585.56 718.93 586.64 720.99 586.99 C 723.04 587.35 725.22 587.00 727.34 587.00 C 729.46 587.00 731.58 587.00 733.69 587.00 C 735.81 587.00 738.73 587.36 740.05 587.00 C 741.37 586.64 742.40 585.32 741.61 584.85 C 740.81 584.38 737.39 584.41 735.29 584.19 C 733.18 583.97 731.04 583.83 728.97 583.52 C 726.89 583.21 724.76 583.05 722.82 582.32 C 720.87 581.60 719.14 580.22 717.30 579.17 C 715.46 578.12 713.62 577.07 711.78 576.02 C 709.94 574.97 708.02 574.03 706.27 572.87 C 704.52 571.71 702.82 570.49 701.28 569.06 C 699.75 567.63 698.48 565.88 697.08 564.29 C 695.68 562.70 694.28 561.11 692.88 559.53 C 691.48 557.94 689.91 556.46 688.67 554.76 C 687.43 553.06 686.48 551.16 685.43 549.32 C 684.38 547.49 683.39 545.61 682.36 543.75 C 681.34 541.90 680.26 540.07 679.30 538.19 C 678.35 536.31 677.32 534.45 676.63 532.47 C 675.94 530.48 675.65 528.35 675.16 526.28 C 674.67 524.22 674.18 522.16 673.69 520.10 C 673.20 518.04 672.71 515.98 672.22 513.92 C 671.73 511.86 671.24 509.80 670.75 507.74 C 670.26 505.68 669.77 503.62 669.28 501.56 C 668.79 499.50 668.18 497.45 667.80 495.38 C 667.42 493.30 667.13 491.22 667.00 489.12 C 666.87 487.01 667.00 484.88 667.00 482.76 C 667.00 480.64 667.00 478.53 667.00 476.41 C 667.00 474.29 666.82 472.15 667.00 470.05 C 667.18 467.95 667.74 465.88 668.11 463.80 C 668.48 461.71 668.85 459.63 669.22 457.54 C 669.60 455.46 669.97 453.37 670.34 451.29 C 670.71 449.20 670.99 447.09 671.46 445.03 C 671.93 442.97 672.51 440.95 673.18 438.94 C 673.84 436.94 674.70 434.99 675.46 433.01 C 676.22 431.03 676.98 429.06 677.74 427.08 C 678.50 425.10 679.24 423.12 680.02 421.15 C 680.80 419.18 681.49 417.17 682.42 415.28 C 683.35 413.38 684.54 411.61 685.60 409.78 C 686.66 407.94 687.73 406.11 688.79 404.28 C 689.85 402.44 690.83 400.55 691.97 398.78 C 693.12 397.00 694.39 395.31 695.66 393.62 C 696.93 391.93 698.27 390.29 699.58 388.62 C 700.89 386.96 701.94 384.32 703.51 383.62 C 705.08 382.93 708.31 383.32 709.00 384.46 C 709.69 385.60 708.39 388.54 707.66 390.48 C 706.93 392.41 705.64 394.20 704.63 396.06 C 703.62 397.93 702.61 399.79 701.61 401.65 C 700.60 403.51 699.57 405.37 698.58 407.24 C 697.59 409.11 696.52 410.95 695.68 412.88 C 694.85 414.82 694.26 416.87 693.55 418.87 C 692.83 420.86 692.12 422.86 691.41 424.85 C 690.70 426.85 689.99 428.84 689.27 430.84 C 688.56 432.83 687.76 434.80 687.14 436.82 C 686.51 438.84 685.96 440.87 685.51 442.94 C 685.07 445.00 684.81 447.12 684.47 449.21 C 684.12 451.30 683.77 453.38 683.42 455.47 C 683.07 457.56 682.72 459.65 682.38 461.74 C 682.03 463.83 681.56 465.91 681.33 468.01 C 681.10 470.11 681.06 472.22 681.00 474.34 C 680.94 476.45 681.00 478.57 681.00 480.69 C 681.00 482.81 680.93 484.93 681.00 487.05 C 681.07 489.16 681.16 491.27 681.41 493.37 C 681.66 495.46 682.14 497.54 682.50 499.63 C 682.86 501.71 683.23 503.80 683.59 505.89 C 683.95 507.97 684.19 510.09 684.68 512.15 C 685.17 514.20 685.86 516.20 686.53 518.20 C 687.20 520.21 687.98 522.19 688.70 524.18 C 689.42 526.17 690.14 528.16 690.87 530.15 C 691.60 532.14 692.14 534.22 693.07 536.11 C 693.99 538.00 695.31 539.70 696.44 541.50 C 697.56 543.29 698.67 545.10 699.80 546.89 C 700.94 548.67 701.88 550.62 703.24 552.22 C 704.60 553.81 706.39 555.05 707.96 556.47 C 709.54 557.88 712.32 560.83 712.69 560.72 C 713.06 560.60 711.11 557.53 710.19 555.78 C 709.27 554.02 708.18 552.05 707.17 550.18 C 706.17 548.32 705.17 546.45 704.16 544.59 C 703.16 542.72 702.07 540.89 701.15 538.99 C 700.22 537.10 699.26 535.22 698.61 533.22 C 697.96 531.22 697.71 529.08 697.25 527.01 C 696.80 524.94 696.35 522.88 695.90 520.81 C 695.44 518.74 694.99 516.67 694.54 514.60 C 694.08 512.53 693.59 510.46 693.18 508.39 C 692.76 506.32 692.18 504.26 692.05 502.17 C 691.92 500.07 692.30 497.94 692.42 495.82 C 692.55 493.71 692.67 491.59 692.80 489.48 C 692.92 487.36 693.04 485.25 693.17 483.13 C 693.29 481.02 693.42 478.91 693.54 476.79 C 693.67 474.68 693.60 472.53 693.91 470.45 C 694.23 468.37 694.86 466.34 695.42 464.31 C 695.98 462.27 696.65 460.25 697.27 458.22 C 697.88 456.20 698.49 454.17 699.11 452.14 C 699.72 450.12 700.34 448.09 700.95 446.06 C 701.57 444.04 702.10 441.97 702.79 439.98 C 703.49 437.99 704.19 436.00 705.11 434.11 C 706.03 432.21 707.25 430.45 708.32 428.62 C 709.39 426.80 710.47 424.97 711.54 423.14 C 712.61 421.32 713.68 419.49 714.75 417.66 C 715.82 415.83 716.89 414.00 717.96 412.18 C 719.04 410.36 720.02 408.46 721.22 406.73 C 722.42 404.99 723.87 403.42 725.19 401.76 C 726.51 400.11 727.84 398.46 729.16 396.80 C 730.48 395.15 731.80 393.49 733.13 391.84 C 734.45 390.19 735.69 388.46 737.11 386.89 C 738.53 385.32 740.13 383.91 741.63 382.42 C 743.14 380.93 744.65 379.45 746.15 377.96 C 747.66 376.47 749.17 374.98 750.67 373.49 C 752.18 372.00 753.69 370.51 755.19 369.02 C 756.70 367.54 758.21 366.05 759.71 364.56 C 761.22 363.07 762.73 361.58 764.23 360.09 C 765.74 358.60 767.25 357.11 768.75 355.63 C 770.26 354.14 771.77 352.65 773.27 351.16 C 774.78 349.67 776.29 348.18 777.79 346.69 C 779.30 345.20 780.81 343.72 782.31 342.23 C 783.82 340.74 785.33 339.25 786.83 337.76 C 788.34 336.27 789.85 334.78 791.35 333.29 C 792.86 331.81 794.37 330.32 795.87 328.83 C 797.38 327.34 798.89 325.85 800.39 324.36 C 801.90 322.87 803.41 321.38 804.91 319.89 C 806.42 318.41 807.93 316.92 809.43 315.43 C 810.94 313.94 812.45 312.45 813.95 310.96 C 815.46 309.47 817.04 308.04 818.47 306.50 C 819.91 304.95 821.30 303.36 822.58 301.69 C 823.87 300.01 824.98 298.19 826.17 296.44 C 827.37 294.69 828.56 292.95 829.76 291.20 C 830.96 289.45 832.31 287.79 833.35 285.95 C 834.38 284.12 835.14 282.13 835.98 280.19 C 836.82 278.25 837.59 276.28 838.40 274.32 C 839.21 272.36 840.29 270.47 840.82 268.44 C 841.34 266.41 841.33 264.25 841.56 262.15 C 841.78 260.05 841.96 257.93 842.16 255.82 C 842.36 253.71 842.76 251.59 842.76 249.50 C 842.77 247.40 842.51 245.32 842.19 243.24 C 841.88 241.16 841.40 239.07 840.86 237.03 C 840.33 234.99 839.78 232.95 839.00 231.00 C 838.22 229.05 837.25 227.11 836.16 225.32 C 835.07 223.52 833.79 221.85 832.47 220.21 C 831.14 218.58 829.68 216.99 828.19 215.51 C 826.70 214.03 825.28 212.47 823.54 211.33 C 821.80 210.18 819.69 209.55 817.77 208.66 C 815.85 207.78 814.02 206.44 812.00 206.00 Z" fill="currentColor" fill-rule="evenodd"/>
</svg>
